<svg xmlns="http://www.w3.org/2000/svg" xmlns:xlink="http://www.w3.org/1999/xlink" viewBox="0 0 208.19 208.19"><defs><style>.cls-1{fill:url(#linear-gradient);}.cls-2{fill:#f1effc;}</style><linearGradient id="linear-gradient" x1="-213.98" y1="382.88" x2="-212.98" y2="382.88" gradientTransform="matrix(206.79, 0, 0, -206.79, 44249.33, 79279.06)" gradientUnits="userSpaceOnUse"><stop offset="0" stop-color="#211a4a"/><stop offset="0.03" stop-color="#211a4a"/><stop offset="1" stop-color="#425ba5"/></linearGradient></defs><g id="Layer_2" data-name="Layer 2"><g id="Layer_1-2" data-name="Layer 1"><rect class="cls-1" x="0.36" y="0.36" width="207.47" height="207.47" rx="32.15" transform="translate(-0.52 207.66) rotate(-89.71)"/><path class="cls-2" d="M81.66,111.16v19.29a59.88,59.88,0,0,0-14.13,2.11c-4.6,1.37-8.7,3.79-12.83,6.38V32.81c.24,0,.48-.05.72-.05,18.86,0,37.71-.06,56.57.06,8.45,0,16.54,1.8,23.87,6.3a33,33,0,0,1,16,23.79c1.45,8.91,1.12,17.76-2.49,26.17-4.89,11.41-13.78,18-25.73,20.78a65.24,65.24,0,0,1-14.22,1.29c-8.83,0-17.66,0-26.49,0H81.66m0-22.29c.32,0,.53,0,.74,0,7.85,0,15.7,0,23.55,0a51.62,51.62,0,0,0,6.8-.52,15.34,15.34,0,0,0,10.52-5.78,17,17,0,0,0,3.31-10c.18-5.29-1.23-9.94-5.4-13.46-3.39-2.87-7.5-3.86-11.78-3.92-9.08-.14-18.16-.07-27.24-.08a2.92,2.92,0,0,0-.5.09Z"/><path class="cls-2" d="M103.51,153c2.34.87,4.66,1.83,7,2.6a63.9,63.9,0,0,0,22.3,3.16c3.23-.13,10-1,13.8-3-1,.8-1.92,1.63-2.92,2.4a29.59,29.59,0,0,1-14,6,48.77,48.77,0,0,1-23.13-2.45c-5.82-2-11.64-4.09-17.56-5.74-15.23-4.23-29.11-1-41.87,8a113.81,113.81,0,0,0-12.2,10.58l-1,.89a65.64,65.64,0,0,1,5.42-12.8c6.71-11.77,16.29-20.26,29.12-24.8,5.86-2.08,12.07-2.44,18.26-2.64a129.85,129.85,0,0,1,21.49,1.5c15.37,2.07,30.06.19,43.58-7.85a51.47,51.47,0,0,0,19.61-20.64c1-1.82,1.77-3.73,2.77-5.85-.16,2-.2,3.89-.46,5.7a51.77,51.77,0,0,1-16.48,31,53.14,53.14,0,0,1-29,14.26,68.25,68.25,0,0,1-24.35-.67,1.22,1.22,0,0,0-.38,0,2.76,2.76,0,0,0-.08.27"/></g></g></svg>